<?xml version="1.0" encoding="utf-8"?>
<svg x="0px" y="0px" width="60px" height="60px" viewBox="0 0 60 60" xmlns="http://www.w3.org/2000/svg" xmlns:xlink="http://www.w3.org/1999/xlink">
  <g id="Layer_3"/>
  <g id="Layer_1"/>
  <g id="Layer_2">
    <circle fill="#D83018" cx="264.5" cy="-913.5" r="370.737"/>
    <circle fill="#A97134" cx="1146.324" cy="-913.5" r="370.737"/>
    <image overflow="visible" width="1366" height="768" transform="matrix(1 0 0 1 -1983.3414 -1426.9514)" xlink:href="C775C2FF.jpg"/>
  </g>
  <g id="Layer_4">
    <title>icon-tag-node-js</title>
    <desc>Created with Sketch.</desc>
    <path fill="#FFFFFF" d="M282.291-1125.131c-115.877,0-150.753,59.626-150.753,59.626s-16.875,31.501-14.625,49.501&#10;&#9;&#9;c2.245,17.962-83.252,122.628-92.252,187.879c-3.375,20.25,5.625,142.878,250.88,153.003&#10;&#9;&#9;C516.829-688.5,491.546-832.625,496.046-825.875c4.5-50.626-43.876-133.878-43.876-133.878s3.503-74.634-19.125-100.127&#10;&#9;&#9;C410.416-1085.373,384.668-1122.881,282.291-1125.131z"/>
    <path fill="#FFFFFF" d="M169.478-1091.944c-123.753-41.626-141.086,5.625-141.086,5.625S-0.4-1054.818,92.977-968.191&#10;&#9;&#9;S135.728-1071.693,169.478-1091.944z"/>
    <path fill="#FFFFFF" d="M389.543-1097.87c82.877-18.261,75.001-68.887,116.627-49.762c25.876,21.375,41.626,57.376-28.126,132.753&#10;&#9;&#9;C400.489-931.068,425.217-1092.695,389.543-1097.87z"/>
    <path fill="#D83018" d="M59.177-1039.985c0,0-21.375-2.672-10.845,22.309c6.735,3.523,23.22,12.145,23.22,12.145&#10;&#9;&#9;s6.75,85.502,42.751,94.502s74.252,7.875,97.877,0c23.625-7.875,32.463-81.002,43.232-86.627c10.769-5.625,27.644,0,27.644,0&#10;&#9;&#9;s16.875,76.502,31.501,86.627c14.625,10.125,84.377,27.001,106.877,10.125c18-1.125,50.305-81.929,50.305-81.929&#10;&#9;&#9;s0.321,7.677,19.742-1.323c13.205-13.5-7.046-29.251-7.046-29.251h-30.463c0,0-33.663-12.375-74.164-16.875&#10;&#9;&#9;s-77.917,0.789-94.502,7.875c-7.875,10.125-29.894,0-29.894,0s-6.291-10.823-31.982-17.578&#10;&#9;&#9;c-46.126-8.297-106.626-3.654-135.639,6.328C67.782-1038.082,59.177-1039.985,59.177-1039.985z"/>
    <path fill="#D83018" d="M151.789-872.001c82.127,20.25,240.499-20.192,237.755-14.625c-2.744,5.566-53.251,108.002-53.251,108.002&#10;&#9;&#9;s-49.501,34.876-127.128,9C199.456-803.909,186.664-865.251,151.789-872.001z"/>
    <path fill="#FFFFFF" d="M246.171-824.36c8.707,2.257,30.378,7.875,30.378,7.875l-4.86-42.732l14.983,42.732&#10;&#9;&#9;c0,0,26.011-18.325,26.366-23.063c0.355-4.738,0-47.611,0-47.611l-84.868,8.53C228.171-878.628,237.465-826.617,246.171-824.36z"/>
    <ellipse transform="matrix(0.9755 0.2199 -0.2199 0.9755 -210.0268 -58.8479)" fill="#FFFFFF" cx="159.286" cy="-972.701" rx="10.875" ry="21.22"/>
    <ellipse transform="matrix(0.9889 -0.1488 0.1488 0.9889 146.8578 46.2767)" fill="#FFFFFF" cx="382.79" cy="-958.611" rx="10.875" ry="21.22"/>
    <path fill="#D83018" d="M247.416-918.127c0,0-1.5-20.124,18.75-19.437c20.25,0.687,17.25,19.437,17.25,19.437h-13.738l-4.262,7.875&#10;&#9;&#9;l-6-7.875H247.416z"/>
    <ellipse transform="matrix(0.9582 0.2861 -0.2861 0.9582 -291.0933 -61.7607)" fill="#FFFFFF" cx="65.833" cy="-1027.167" rx="13.333" ry="5"/>
    <ellipse transform="matrix(0.9702 -0.2424 0.2424 0.9702 256.3588 84.5302)" fill="#FFFFFF" cx="471.739" cy="-999.665" rx="13.333" ry="5"/>
    <g>
      <path fill="#D83018" d="M516.815-1098.158c0,0-0.104-0.621-0.392-1.732c-0.28-1.107-0.81-2.711-1.705-4.539&#10;&#9;&#9;&#9;c-0.905-1.811-2.246-3.86-4.221-5.405c-1.962-1.557-4.505-2.517-7.513-2.711c-1.51-0.085-3.128-0.021-4.822,0.221l-0.639,0.099&#10;&#9;&#9;&#9;l-0.32,0.048l-0.161,0.021c0.102-0.009-0.284,0.027,0.218-0.018l-0.046,0.01l-0.092,0.02l-0.741,0.16&#10;&#9;&#9;&#9;c-0.16,0.025-0.162,0.057-0.21,0.084l-0.124,0.075c-0.267,0.129-0.536,0.26-0.807,0.391c-0.329,0.174-0.672,0.37-1.016,0.571&#10;&#9;&#9;&#9;c-2.843,1.724-5.957,4.487-9.024,7.479c-1.525,1.529-3.082,3.111-4.633,4.757c-1.545,1.653-3.083,3.375-4.654,5.099&#10;&#9;&#9;&#9;c-3.092,3.497-6.239,7.093-9.318,10.768c-3.129,3.635-6.188,7.35-9.256,10.977c-1.515,1.828-3.027,3.639-4.542,5.414&#10;&#9;&#9;&#9;c-1.504,1.787-2.99,3.552-4.452,5.288c-2.929,3.474-5.797,6.815-8.529,9.983c-2.742,3.16-5.359,6.138-7.802,8.874&#10;&#9;&#9;&#9;c-4.89,5.468-9.1,9.954-12.119,13.055c-1.497,1.559-2.738,2.742-3.552,3.573c-0.839,0.814-1.286,1.249-1.286,1.249&#10;&#9;&#9;&#9;s0.215-0.589,0.666-1.666c0.463-1.068,1.102-2.663,2.015-4.63c1.802-3.949,4.532-9.498,8.14-15.953&#10;&#9;&#9;&#9;c1.806-3.226,3.824-6.683,6.042-10.287c2.226-3.598,4.635-7.356,7.241-11.169c1.28-1.924,2.65-3.831,4.029-5.769&#10;&#9;&#9;&#9;c1.377-1.941,2.799-3.886,4.28-5.814c2.909-3.896,6.037-7.732,9.221-11.541c3.246-3.758,6.559-7.483,10.052-10.983&#10;&#9;&#9;&#9;c1.73-1.768,3.502-3.475,5.32-5.119c1.812-1.65,3.646-3.254,5.555-4.748c1.905-1.498,3.84-2.951,5.902-4.236&#10;&#9;&#9;&#9;c2.062-1.284,4.181-2.508,6.577-3.434c0.611-0.227,1.227-0.442,1.864-0.636c0.691-0.178,1.229-0.356,2.136-0.504l0.618-0.102&#10;&#9;&#9;&#9;c0.199-0.03,0.441-0.07,0.534-0.065l0.757-0.032l0.094-0.004l0.047-0.002c0.532-0.051,0.178-0.013,0.311-0.024l0.214,0.007&#10;&#9;&#9;&#9;l0.427,0.02l0.846,0.043c2.248,0.153,4.455,0.47,6.538,1.103c2.078,0.647,4.034,1.547,5.689,2.72&#10;&#9;&#9;&#9;c1.654,1.171,3.027,2.542,4.029,3.985c2.03,2.894,2.735,5.779,3.012,8.04c0.285,2.282,0.084,4.044-0.05,5.214&#10;&#9;&#9;&#9;C517.003-1098.758,516.815-1098.158,516.815-1098.158z"/>
    </g>
    <g>
      <path fill="#D83018" d="M46.352-1061.934c0,0-0.314-0.344-0.791-1.1c-0.46-0.759-1.083-1.939-1.481-3.654&#10;&#9;&#9;&#9;c-0.397-1.694-0.536-4.026,0.362-6.609c0.87-2.584,2.856-5.157,5.437-7.135c0.645-0.461,1.329-0.908,2.032-1.368&#10;&#9;&#9;&#9;c0.705-0.46,1.436-0.774,2.187-1.177c0.378-0.189,0.76-0.379,1.145-0.571l0.073-0.035l0.442-0.119l0.033-0.011l0.132-0.043&#10;&#9;&#9;&#9;l0.264-0.087l0.532-0.175l0.536-0.176c0.185-0.059,0.544-0.103,0.813-0.151c0.582-0.092,1.179-0.172,1.784-0.236l0.455-0.046&#10;&#9;&#9;&#9;l0.358-0.013l0.713-0.016c0.479-0.001,0.961-0.002,1.447-0.004c0.932,0.04,1.836,0.125,2.779,0.194&#10;&#9;&#9;&#9;c1.812,0.193,3.616,0.522,5.381,0.906c3.544,0.762,7.04,1.829,10.479,3.073c3.428,1.259,6.84,2.657,10.153,4.199&#10;&#9;&#9;&#9;c6.635,3.078,12.985,6.587,18.717,10.222c2.871,1.806,5.59,3.639,8.125,5.44c2.533,1.805,4.879,3.584,7.01,5.276&#10;&#9;&#9;&#9;c4.257,3.393,7.635,6.466,9.928,8.721c2.298,2.248,3.508,3.678,3.508,3.678s-1.816-0.459-4.86-1.443&#10;&#9;&#9;&#9;c-3.048-0.978-7.332-2.47-12.343-4.43c-2.505-0.981-5.195-2.074-8.017-3.256c-2.813-1.198-5.772-2.46-8.793-3.821&#10;&#9;&#9;&#9;c-6.068-2.665-12.419-5.676-18.735-8.591c-6.299-2.926-12.593-5.808-18.354-8.021c-0.714-0.254-1.438-0.553-2.13-0.769&#10;&#9;&#9;&#9;c-0.691-0.226-1.375-0.45-2.053-0.672c-0.654-0.179-1.3-0.356-1.939-0.531c-0.299-0.058-0.597-0.117-0.892-0.175l-0.446-0.101&#10;&#9;&#9;&#9;l-0.218-0.051l-0.12-0.021c-0.161-0.032-0.325-0.079-0.498-0.14c-0.107-0.019-0.129-0.088-0.312-0.075L58.63-1075l-0.559,0.048&#10;&#9;&#9;&#9;l-0.278,0.024l-0.138,0.012l-0.035,0.003c0.171-0.046-0.432,0.108,0.375-0.103l-0.056,0.013c-0.298,0.072-0.601,0.125-0.901,0.186&#10;&#9;&#9;&#9;c-0.587,0.132-1.233,0.202-1.768,0.375c-0.537,0.171-1.07,0.344-1.618,0.489c-2.03,0.736-3.647,1.729-4.799,3.001&#10;&#9;&#9;&#9;c-1.165,1.262-1.833,2.815-2.177,4.219c-0.338,1.408-0.4,2.643-0.396,3.486C46.294-1062.404,46.352-1061.934,46.352-1061.934z"/>
    </g>
    <g>
      <path fill="#FFFFFF" d="M131.5-1027.395c0,0-1.195-0.033-3.255,0.077c-1.029,0.042-2.275,0.131-3.689,0.295&#10;&#9;&#9;&#9;c-1.414,0.142-3,0.362-4.696,0.706c-1.698,0.321-3.513,0.748-5.363,1.36c-1.849,0.61-3.741,1.361-5.574,2.329&#10;&#9;&#9;&#9;c-1.83,0.969-3.595,2.151-5.18,3.557c-1.595,1.396-2.993,3.028-4.168,4.81c-0.268,0.448-0.613,0.911-0.82,1.342&#10;&#9;&#9;&#9;c-0.265,0.506-0.595,1.067-0.81,1.524c-0.46,0.911-0.892,1.904-1.279,2.903c-0.771,1.992-1.33,4.03-1.691,6.046&#10;&#9;&#9;&#9;c-0.742,4.035-0.717,7.975-0.402,11.371c0.13,1.707,0.419,3.259,0.646,4.655c0.245,1.393,0.536,2.6,0.764,3.607&#10;&#9;&#9;&#9;c0.498,1.999,0.858,3.156,0.858,3.156s-0.209-0.22-0.551-0.672c-0.347-0.449-0.84-1.122-1.391-2.028&#10;&#9;&#9;&#9;c-0.572-0.897-1.181-2.035-1.81-3.385c-0.645-1.345-1.21-2.932-1.754-4.703c-0.523-1.776-0.926-3.761-1.146-5.901&#10;&#9;&#9;&#9;c-0.211-2.141-0.219-4.438,0.058-6.803c0.286-2.362,0.861-4.784,1.757-7.132c0.448-1.169,0.979-2.315,1.599-3.494&#10;&#9;&#9;&#9;c0.297-0.603,0.601-1.039,0.905-1.565c0.348-0.612,0.719-1.093,1.08-1.644c1.484-2.119,3.309-4.001,5.305-5.556&#10;&#9;&#9;&#9;c2.004-1.55,4.173-2.774,6.358-3.671c2.183-0.902,4.367-1.514,6.453-1.895c2.087-0.38,4.066-0.578,5.887-0.648&#10;&#9;&#9;&#9;c1.824-0.046,3.486,0.016,4.949,0.125c1.463,0.13,2.726,0.316,3.759,0.491C130.362-1027.761,131.5-1027.395,131.5-1027.395z"/>
    </g>
    <g>
      <path fill="#FFFFFF" d="M439.381-952.94c0,0,0.62-1.022,1.545-2.866c0.472-0.915,1.012-2.042,1.57-3.352&#10;&#9;&#9;&#9;c0.577-1.299,1.171-2.786,1.711-4.43c0.561-1.634,1.089-3.423,1.473-5.333c0.384-1.908,0.669-3.925,0.735-5.996&#10;&#9;&#9;&#9;c0.064-2.069-0.09-4.188-0.527-6.262c-0.424-2.077-1.149-4.099-2.116-6.003c-0.257-0.454-0.488-0.984-0.76-1.377&#10;&#9;&#9;&#9;c-0.309-0.48-0.632-1.045-0.923-1.458c-0.563-0.85-1.213-1.717-1.889-2.548c-1.349-1.656-2.843-3.15-4.417-4.462&#10;&#9;&#9;&#9;c-3.139-2.642-6.575-4.57-9.681-5.978c-1.547-0.732-3.039-1.249-4.365-1.743c-1.332-0.477-2.524-0.821-3.512-1.121&#10;&#9;&#9;&#9;c-1.983-0.557-3.167-0.816-3.167-0.816s0.295-0.073,0.856-0.146c0.561-0.079,1.39-0.174,2.45-0.205&#10;&#9;&#9;&#9;c1.063-0.053,2.353-0.018,3.837,0.102c1.488,0.105,3.147,0.4,4.955,0.803c1.802,0.425,3.726,1.057,5.695,1.925&#10;&#9;&#9;&#9;c1.965,0.876,3.964,2.007,5.882,3.417c1.91,1.418,3.73,3.116,5.328,5.057c0.794,0.968,1.526,1.997,2.245,3.119&#10;&#9;&#9;&#9;c0.376,0.556,0.605,1.037,0.912,1.561c0.359,0.605,0.594,1.166,0.894,1.753c1.107,2.338,1.839,4.856,2.202,7.36&#10;&#9;&#9;&#9;c0.354,2.508,0.345,4.999,0.043,7.341c-0.297,2.343-0.847,4.544-1.547,6.545c-0.703,2.001-1.51,3.819-2.351,5.437&#10;&#9;&#9;&#9;c-0.863,1.608-1.74,3.021-2.559,4.238c-0.838,1.207-1.624,2.213-2.287,3.023C440.261-953.747,439.381-952.94,439.381-952.94z"/>
    </g>
    <path fill="#FFFFFF" d="M1164.115-1125.131c-115.877,0-150.753,59.626-150.753,59.626s-16.875,31.501-14.625,49.501&#10;&#9;&#9;c2.245,17.962-83.252,122.628-92.252,187.879c-3.375,20.25,5.625,142.878,250.88,153.003&#10;&#9;&#9;c241.288-13.378,216.004-157.503,220.505-150.753c4.5-50.626-43.876-133.878-43.876-133.878s3.503-74.634-19.125-100.127&#10;&#9;&#9;S1266.492-1122.881,1164.115-1125.131z"/>
    <path fill="#FFFFFF" d="M1051.302-1091.944c-123.753-41.626-141.086,5.625-141.086,5.625s-28.793,31.501,64.584,118.127&#10;&#9;&#9;C1068.177-881.564,1017.551-1071.693,1051.302-1091.944z"/>
    <path fill="#FFFFFF" d="M1271.367-1097.87c82.877-18.261,75.001-68.887,116.627-49.762c25.876,21.375,41.626,57.376-28.125,132.753&#10;&#9;&#9;C1282.313-931.068,1307.041-1092.695,1271.367-1097.87z"/>
    <path fill="#A97134" d="M941-1039.985c0,0-21.375-2.672-10.845,22.309c6.735,3.523,23.22,12.145,23.22,12.145&#10;&#9;&#9;s6.75,85.502,42.751,94.502s74.251,7.875,97.877,0c23.625-7.875,32.464-81.002,43.232-86.627s27.644,0,27.644,0&#10;&#9;&#9;s16.875,76.502,31.501,86.627c14.625,10.125,84.377,27.001,106.877,10.125c18-1.125,50.305-81.929,50.305-81.929&#10;&#9;&#9;s0.321,7.677,19.742-1.323c13.205-13.5-7.046-29.251-7.046-29.251h-30.463c0,0-33.663-12.375-74.164-16.875&#10;&#9;&#9;c-40.501-4.5-77.917,0.789-94.502,7.875c-7.875,10.125-29.894,0-29.894,0s-6.291-10.823-31.982-17.578&#10;&#9;&#9;c-46.126-8.297-106.626-3.654-135.639,6.328C949.605-1038.082,941-1039.985,941-1039.985z"/>
    <path fill="#A97134" d="M1033.612-872.001c82.127,20.25,240.499-20.192,237.755-14.625c-2.744,5.566-53.251,108.002-53.251,108.002&#10;&#9;&#9;s-49.501,34.876-127.128,9C1081.28-803.909,1068.488-865.251,1033.612-872.001z"/>
    <path fill="#FFFFFF" d="M1127.995-824.36c8.707,2.257,30.378,7.875,30.378,7.875l-4.86-42.732l14.983,42.732&#10;&#9;&#9;c0,0,26.011-18.325,26.366-23.063c0.355-4.738,0-47.611,0-47.611l-84.868,8.53C1109.995-878.628,1119.288-826.617,1127.995-824.36z&#10;&#9;&#9;"/>
    <ellipse transform="matrix(0.9755 0.2199 -0.2199 0.9755 -188.4358 -252.7881)" fill="#FFFFFF" cx="1041.109" cy="-972.701" rx="10.875" ry="21.22"/>
    <ellipse transform="matrix(0.9889 -0.1488 0.1488 0.9889 156.669 177.453)" fill="#FFFFFF" cx="1264.614" cy="-958.611" rx="10.875" ry="21.22"/>
    <path fill="#A97134" d="M1129.239-918.127c0,0-1.5-20.124,18.75-19.437c20.25,0.687,17.25,19.437,17.25,19.437h-13.738&#10;&#9;&#9;l-4.262,7.875l-6-7.875H1129.239z"/>
    <ellipse transform="matrix(0.9582 0.2861 -0.2861 0.9582 -254.24 -314.0266)" fill="#FFFFFF" cx="947.657" cy="-1027.167" rx="13.333" ry="5"/>
    <ellipse transform="matrix(0.9702 -0.2424 0.2424 0.9702 282.6522 298.2614)" fill="#FFFFFF" cx="1353.563" cy="-999.665" rx="13.333" ry="5"/>
    <g>
      <path fill="#A97134" d="M1398.638-1098.158c0,0-0.081-0.619-0.335-1.735c-0.244-1.113-0.731-2.725-1.559-4.594&#10;&#9;&#9;&#9;c-0.84-1.855-2.171-3.952-4.138-5.605c-1.964-1.661-4.584-2.744-7.683-3.019c-1.554-0.127-3.217-0.093-4.954,0.119l-0.655,0.088&#10;&#9;&#9;&#9;l-0.329,0.043l-0.165,0.019c0.083-0.007-0.245,0.023,0.177-0.015l-0.046,0.009l-0.092,0.019l-0.742,0.15&#10;&#9;&#9;&#9;c-0.155,0.023-0.176,0.056-0.235,0.082l-0.161,0.077c-0.158,0.055-0.585,0.26-0.909,0.4c-0.352,0.176-0.716,0.373-1.081,0.576&#10;&#9;&#9;&#9;c-2.989,1.74-6.165,4.501-9.29,7.493c-1.555,1.526-3.133,3.11-4.704,4.756c-1.566,1.652-3.122,3.373-4.705,5.1&#10;&#9;&#9;&#9;c-3.123,3.498-6.283,7.103-9.374,10.785c-3.134,3.648-6.198,7.373-9.253,11.02c-3.045,3.668-6.042,7.277-8.941,10.77&#10;&#9;&#9;&#9;c-5.814,6.995-11.301,13.516-16.096,19.057c-2.401,2.768-4.617,5.3-6.606,7.531c-1.98,2.236-3.766,4.149-5.216,5.741&#10;&#9;&#9;&#9;c-1.435,1.602-2.641,2.81-3.424,3.66c-0.808,0.835-1.239,1.281-1.239,1.281s0.234-0.577,0.714-1.634&#10;&#9;&#9;&#9;c0.493-1.048,1.168-2.618,2.143-4.542c0.959-1.934,2.115-4.292,3.535-6.935c1.411-2.65,3.053-5.608,4.902-8.801&#10;&#9;&#9;&#9;c3.703-6.381,8.265-13.676,13.518-21.256c1.296-1.908,2.673-3.806,4.062-5.732c1.387-1.928,2.816-3.863,4.3-5.783&#10;&#9;&#9;&#9;c2.921-3.875,6.044-7.702,9.224-11.497c3.233-3.752,6.534-7.467,9.996-10.966c1.718-1.764,3.472-3.473,5.269-5.117&#10;&#9;&#9;&#9;c1.792-1.65,3.604-3.252,5.485-4.749c1.876-1.5,3.783-2.948,5.801-4.234c2.02-1.285,4.093-2.499,6.412-3.421&#10;&#9;&#9;&#9;c0.591-0.225,1.186-0.439,1.799-0.631c0.66-0.175,1.189-0.355,2.034-0.495l0.58-0.1c0.188-0.03,0.411-0.069,0.509-0.066&#10;&#9;&#9;&#9;l0.756-0.042l0.412-0.028l0.21,0.005l0.418,0.015l0.83,0.032c2.205,0.122,4.367,0.41,6.406,1.001&#10;&#9;&#9;&#9;c2.034,0.604,3.946,1.458,5.571,2.576c1.624,1.115,2.977,2.432,3.978,3.822c2.038,2.786,2.753,5.623,3.094,7.841&#10;&#9;&#9;&#9;c0.351,2.241,0.194,3.995,0.095,5.159C1398.804-1098.76,1398.638-1098.158,1398.638-1098.158z"/>
    </g>
    <g>
      <path fill="#A97134" d="M928.175-1061.934c0,0-0.298-0.352-0.732-1.117c-0.406-0.769-1.006-1.947-1.34-3.641&#10;&#9;&#9;&#9;c-0.34-1.672-0.417-3.944,0.502-6.425c0.892-2.483,2.849-4.935,5.388-6.817c0.637-0.437,1.31-0.863,2-1.301&#10;&#9;&#9;&#9;c0.691-0.438,1.416-0.733,2.154-1.115c0.372-0.179,0.748-0.36,1.126-0.542c0.468-0.144,0.94-0.288,1.415-0.434l0.538-0.167&#10;&#9;&#9;&#9;c0.185-0.055,0.518-0.091,0.775-0.133c0.551-0.08,1.114-0.15,1.685-0.207l0.429-0.04l0.347-0.008l0.692-0.007&#10;&#9;&#9;&#9;c0.465,0.003,0.933,0.007,1.404,0.01c0.908,0.049,1.794,0.143,2.714,0.22c1.775,0.213,3.549,0.549,5.289,0.947&#10;&#9;&#9;&#9;c1.752,0.384,3.49,0.863,5.207,1.401c0.856,0.271,1.734,0.527,2.589,0.817c0.85,0.304,1.705,0.609,2.563,0.915&#10;&#9;&#9;&#9;c3.409,1.25,6.785,2.684,10.096,4.196c3.291,1.561,6.553,3.152,9.673,4.874c1.577,0.831,3.111,1.702,4.617,2.583&#10;&#9;&#9;&#9;c1.508,0.875,2.994,1.74,4.429,2.639c2.882,1.772,5.62,3.561,8.176,5.316c2.555,1.757,4.927,3.483,7.087,5.12&#10;&#9;&#9;&#9;c4.315,3.282,7.763,6.235,10.114,8.391c1.182,1.068,2.069,1.971,2.687,2.563c0.612,0.602,0.925,0.943,0.925,0.943&#10;&#9;&#9;&#9;s-0.437-0.141-1.256-0.405c-0.805-0.286-2.012-0.661-3.5-1.21c-2.99-1.076-7.204-2.69-12.156-4.76&#10;&#9;&#9;&#9;c-4.955-2.068-10.656-4.579-16.681-7.357c-1.518-0.671-3.033-1.405-4.579-2.118c-1.551-0.703-3.107-1.439-4.671-2.18&#10;&#9;&#9;&#9;c-3.128-1.458-6.306-2.939-9.483-4.42c-3.154-1.507-6.334-2.892-9.433-4.282c-1.552-0.655-3.093-1.305-4.614-1.948&#10;&#9;&#9;&#9;c-0.76-0.326-1.515-0.613-2.264-0.89c-0.75-0.276-1.489-0.604-2.219-0.843c-0.728-0.248-1.463-0.54-2.172-0.751&#10;&#9;&#9;&#9;c-0.708-0.219-1.409-0.435-2.103-0.649c-0.671-0.164-1.353-0.357-2.004-0.505c-0.599-0.106-1.191-0.212-1.776-0.315&#10;&#9;&#9;&#9;c-0.195-0.025-0.392-0.062-0.597-0.111c-0.119-0.014-0.167-0.074-0.35-0.058l-0.561,0.058l-0.557,0.058l-0.277,0.029l-0.138,0.014&#10;&#9;&#9;&#9;l-0.034,0.004c0.143-0.039-0.369,0.092,0.313-0.086l-0.057,0.015c-0.309,0.073-0.616,0.145-0.92,0.216&#10;&#9;&#9;&#9;c-0.6,0.153-1.252,0.241-1.8,0.437c-0.55,0.193-1.095,0.387-1.65,0.557c-2.072,0.831-3.718,1.946-4.848,3.319&#10;&#9;&#9;&#9;c-1.144,1.364-1.75,2.976-2.038,4.403c-0.274,1.43-0.313,2.668-0.255,3.5C928.101-1062.395,928.175-1061.934,928.175-1061.934z"/>
    </g>
    <g>
      <path fill="#FFFFFF" d="M1013.324-1027.395c0,0-1.195-0.033-3.255,0.077c-1.029,0.042-2.275,0.131-3.689,0.295&#10;&#9;&#9;&#9;c-1.414,0.142-3,0.362-4.696,0.706c-1.698,0.321-3.513,0.748-5.363,1.36c-1.849,0.61-3.741,1.361-5.574,2.329&#10;&#9;&#9;&#9;c-1.83,0.969-3.595,2.151-5.18,3.557c-1.595,1.396-2.993,3.028-4.168,4.81c-0.268,0.448-0.613,0.911-0.82,1.342&#10;&#9;&#9;&#9;c-0.265,0.506-0.595,1.067-0.81,1.524c-0.46,0.911-0.892,1.904-1.279,2.903c-0.771,1.992-1.33,4.03-1.691,6.046&#10;&#9;&#9;&#9;c-0.742,4.035-0.717,7.975-0.402,11.371c0.13,1.707,0.419,3.259,0.646,4.655c0.245,1.393,0.536,2.6,0.764,3.607&#10;&#9;&#9;&#9;c0.498,1.999,0.858,3.156,0.858,3.156s-0.209-0.22-0.551-0.672c-0.347-0.449-0.84-1.122-1.391-2.028&#10;&#9;&#9;&#9;c-0.572-0.897-1.181-2.035-1.81-3.385c-0.645-1.345-1.21-2.932-1.754-4.703c-0.523-1.776-0.926-3.761-1.146-5.901&#10;&#9;&#9;&#9;c-0.211-2.141-0.219-4.438,0.058-6.803c0.286-2.362,0.861-4.784,1.757-7.132c0.448-1.169,0.979-2.315,1.599-3.494&#10;&#9;&#9;&#9;c0.297-0.603,0.601-1.039,0.905-1.565c0.348-0.612,0.719-1.093,1.08-1.644c1.484-2.119,3.309-4.001,5.305-5.556&#10;&#9;&#9;&#9;c2.004-1.55,4.173-2.774,6.358-3.671c2.183-0.902,4.367-1.514,6.453-1.895c2.087-0.38,4.066-0.578,5.887-0.648&#10;&#9;&#9;&#9;c1.824-0.046,3.486,0.016,4.949,0.125c1.463,0.13,2.726,0.316,3.759,0.491C1012.186-1027.761,1013.324-1027.395,1013.324-1027.395&#10;&#9;&#9;&#9;z"/>
    </g>
    <g>
      <path fill="#FFFFFF" d="M1321.204-952.94c0,0,0.62-1.022,1.545-2.866c0.472-0.915,1.012-2.042,1.57-3.352&#10;&#9;&#9;&#9;c0.577-1.299,1.171-2.786,1.711-4.43c0.561-1.634,1.089-3.423,1.473-5.333c0.384-1.908,0.669-3.925,0.735-5.996&#10;&#9;&#9;&#9;c0.064-2.069-0.09-4.188-0.527-6.262c-0.424-2.077-1.149-4.099-2.116-6.003c-0.257-0.454-0.488-0.984-0.76-1.377&#10;&#9;&#9;&#9;c-0.309-0.48-0.632-1.045-0.923-1.458c-0.563-0.85-1.213-1.717-1.889-2.548c-1.349-1.656-2.843-3.15-4.417-4.462&#10;&#9;&#9;&#9;c-3.139-2.642-6.575-4.57-9.681-5.978c-1.547-0.732-3.039-1.249-4.365-1.743c-1.332-0.477-2.524-0.821-3.512-1.121&#10;&#9;&#9;&#9;c-1.983-0.557-3.167-0.816-3.167-0.816s0.295-0.073,0.856-0.146c0.561-0.079,1.39-0.174,2.45-0.205&#10;&#9;&#9;&#9;c1.063-0.053,2.353-0.018,3.837,0.102c1.488,0.105,3.147,0.4,4.955,0.803c1.802,0.425,3.726,1.057,5.695,1.925&#10;&#9;&#9;&#9;c1.965,0.876,3.964,2.007,5.882,3.417c1.91,1.418,3.73,3.116,5.328,5.057c0.794,0.968,1.526,1.997,2.245,3.119&#10;&#9;&#9;&#9;c0.376,0.556,0.605,1.037,0.912,1.561c0.359,0.605,0.594,1.166,0.894,1.753c1.107,2.338,1.839,4.856,2.202,7.36&#10;&#9;&#9;&#9;c0.354,2.508,0.345,4.999,0.043,7.341c-0.297,2.343-0.847,4.544-1.547,6.545c-0.703,2.001-1.51,3.819-2.351,5.437&#10;&#9;&#9;&#9;c-0.863,1.608-1.74,3.021-2.559,4.238c-0.838,1.207-1.624,2.213-2.287,3.023C1322.085-953.747,1321.204-952.94,1321.204-952.94z"/>
    </g>
    <g>
      <g>
        <path d="M 30.678 6.018 C 18.353 6.018 14.642 13.031 14.642 13.031 C 14.642 13.031 12.848 16.736 13.086 18.854 C 13.325 20.965 4.233 33.276 3.276 40.951 C 2.916 43.332 3.875 57.757 29.958 58.946 C 55.621 57.374 52.932 40.421 53.41 41.216 C 53.89 35.26 48.743 25.468 48.743 25.468 C 48.743 25.468 49.116 16.69 46.708 13.69 C 44.304 10.691 41.565 6.282 30.678 6.018 Z" fill="#FFFFFF"/>
        <path d="M 18.678 9.921 C 5.515 5.025 3.671 10.583 3.671 10.583 C 3.671 10.583 0.61 14.289 10.541 24.477 C 20.47 34.666 15.088 12.304 18.678 9.921 Z" fill="#FFFFFF"/>
        <path d="M 42.083 9.223 C 50.896 7.077 50.06 1.121 54.487 3.37 C 57.241 5.884 58.915 10.117 51.496 18.986 C 43.247 28.844 45.877 9.833 42.083 9.223 Z" fill="#FFFFFF"/>
        <path d="M 6.947 16.031 C 6.947 16.031 4.675 15.717 5.793 18.656 C 6.509 19.069 8.262 20.083 8.262 20.083 C 8.262 20.083 8.979 30.139 12.809 31.199 C 16.638 32.257 20.705 32.126 23.219 31.199 C 25.733 30.272 26.673 21.671 27.816 21.009 C 28.96 20.347 30.756 21.009 30.756 21.009 C 30.756 21.009 32.551 30.009 34.107 31.199 C 35.662 32.388 43.081 34.374 45.474 32.388 C 47.388 32.257 50.825 22.753 50.825 22.753 C 50.825 22.753 50.858 23.655 52.924 22.596 C 54.328 21.007 52.175 19.155 52.175 19.155 L 48.937 19.155 C 48.937 19.155 45.357 17.7 41.049 17.171 C 36.74 16.641 32.763 17.263 30.997 18.098 C 30.159 19.288 27.817 18.098 27.817 18.098 C 27.817 18.098 27.148 16.826 24.416 16.03 C 19.509 15.053 13.075 15.601 9.99 16.774 C 7.863 16.256 6.947 16.031 6.947 16.031 Z" style="fill: rgb(148, 126, 133);"/>
        <path d="M 16.797 35.79 C 25.531 38.172 42.375 33.414 42.084 34.069 C 41.793 34.725 36.421 46.773 36.421 46.773 C 36.421 46.773 31.154 50.875 22.899 47.83 C 21.866 43.8 20.505 36.584 16.797 35.79 Z" style="fill: rgb(148, 126, 133);"/>
        <path d="M 26.835 41.393 C 27.761 41.659 30.064 42.32 30.064 42.32 L 29.548 37.295 L 31.142 42.32 C 31.142 42.32 33.908 40.165 33.946 39.608 C 33.984 39.051 33.946 34.007 33.946 34.007 L 24.92 35.012 C 24.92 35.01 25.907 41.128 26.835 41.393 Z" fill="#FFFFFF"/>
        <ellipse transform="matrix(0.970306, 0.241886, -0.199919, 0.980767, -6.716429, -27.566898)" cx="34.142" cy="44.101" rx="1.163" ry="2.481" fill="#FFFFFF"/>
        <ellipse transform="matrix(0.986436, -0.164146, 0.134883, 0.991305, -21.910536, -10.384094)" cx="57.874" cy="45.884" rx="1.16" ry="2.489" fill="#FFFFFF"/>
        <path d="M 26.967 30.366 C 26.967 30.366 26.807 27.999 28.962 28.08 C 31.116 28.16 30.795 30.366 30.795 30.366 L 29.335 30.366 L 28.882 31.293 L 28.243 30.366 L 26.967 30.366 Z" style="fill: rgb(148, 126, 133);"/>
        <ellipse transform="matrix(0.949573, 0.313547, -0.261059, 0.966905, -5.549373, -26.406758)" cx="24.239" cy="37.591" rx="1.431" ry="0.582" fill="#FFFFFF"/>
        <ellipse transform="matrix(0.963883, -0.266322, 0.220628, 0.97651, -23.384987, -1.155466)" cx="67.631" cy="40.902" rx="1.428" ry="0.584" fill="#FFFFFF"/>
        <path d="M 55.62 9.19 C 55.62 9.19 55.609 9.116 55.577 8.986 C 55.549 8.856 55.491 8.668 55.396 8.452 C 55.302 8.239 55.159 7.997 54.949 7.816 C 54.74 7.632 54.468 7.521 54.148 7.5 C 53.988 7.488 53.817 7.496 53.637 7.524 L 53.567 7.535 L 53.533 7.542 L 53.518 7.543 C 53.527 7.542 53.485 7.547 53.539 7.542 L 53.534 7.543 L 53.526 7.545 L 53.446 7.563 C 53.431 7.567 53.431 7.569 53.425 7.573 L 53.413 7.583 C 53.384 7.598 53.357 7.613 53.326 7.628 C 53.291 7.648 53.255 7.671 53.218 7.695 C 52.915 7.898 52.584 8.223 52.257 8.573 C 52.095 8.753 51.93 8.94 51.765 9.133 C 51.6 9.327 51.437 9.53 51.27 9.734 C 50.94 10.146 50.607 10.568 50.279 11 C 49.946 11.428 49.619 11.865 49.293 12.292 C 49.133 12.508 48.972 12.718 48.812 12.927 C 48.652 13.137 48.491 13.345 48.337 13.55 C 48.027 13.959 47.722 14.351 47.43 14.725 C 47.139 15.097 46.86 15.447 46.6 15.768 C 46.08 16.412 45.631 16.94 45.311 17.304 C 45.151 17.487 45.019 17.627 44.933 17.725 C 44.843 17.82 44.797 17.872 44.797 17.872 C 44.797 17.872 44.819 17.802 44.868 17.675 C 44.917 17.55 44.985 17.362 45.083 17.13 C 45.275 16.666 45.565 16.013 45.949 15.255 C 46.141 14.875 46.354 14.469 46.593 14.045 C 46.829 13.622 47.085 13.179 47.362 12.732 C 47.498 12.504 47.643 12.282 47.79 12.052 C 47.937 11.823 48.089 11.597 48.244 11.368 C 48.554 10.91 48.887 10.457 49.225 10.011 C 49.57 9.569 49.923 9.129 50.294 8.72 C 50.479 8.511 50.666 8.311 50.86 8.118 C 51.053 7.925 51.247 7.735 51.451 7.558 C 51.654 7.381 51.858 7.212 52.078 7.06 C 52.298 6.909 52.523 6.767 52.777 6.658 C 52.843 6.63 52.907 6.606 52.976 6.581 C 53.05 6.562 53.106 6.541 53.203 6.522 L 53.27 6.511 C 53.291 6.507 53.316 6.501 53.326 6.502 L 53.407 6.5 L 53.416 6.5 L 53.42 6.5 C 53.478 6.494 53.439 6.497 53.453 6.495 L 53.477 6.497 L 53.521 6.5 L 53.611 6.506 C 53.85 6.523 54.084 6.559 54.307 6.635 C 54.528 6.711 54.735 6.816 54.912 6.954 C 55.087 7.093 55.234 7.253 55.34 7.423 C 55.556 7.762 55.63 8.101 55.661 8.369 C 55.69 8.637 55.669 8.844 55.656 8.982 C 55.639 9.119 55.62 9.19 55.62 9.19 Z" style="fill: rgb(148, 126, 133);"/>
        <path d="M 5.583 13.451 C 5.583 13.451 5.549 13.41 5.499 13.321 C 5.45 13.231 5.385 13.094 5.343 12.891 C 5.3 12.692 5.284 12.418 5.38 12.114 C 5.473 11.808 5.684 11.508 5.959 11.275 C 6.026 11.22 6.099 11.169 6.174 11.112 C 6.249 11.059 6.328 11.022 6.407 10.975 C 6.447 10.953 6.487 10.931 6.528 10.908 L 6.538 10.905 L 6.584 10.892 L 6.587 10.891 L 6.6 10.885 L 6.628 10.874 L 6.686 10.854 L 6.742 10.833 C 6.762 10.827 6.799 10.822 6.829 10.817 C 6.892 10.806 6.954 10.796 7.02 10.788 L 7.067 10.783 L 7.106 10.782 L 7.182 10.78 C 7.233 10.78 7.283 10.78 7.336 10.78 C 7.436 10.785 7.53 10.796 7.633 10.802 C 7.825 10.824 8.017 10.864 8.203 10.908 C 8.582 10.997 8.953 11.124 9.319 11.269 C 9.685 11.418 10.046 11.581 10.398 11.763 C 11.103 12.126 11.779 12.538 12.388 12.965 C 12.692 13.178 12.982 13.393 13.252 13.605 C 13.522 13.817 13.773 14.027 13.998 14.225 C 14.452 14.623 14.809 14.988 15.055 15.251 C 15.299 15.517 15.427 15.684 15.427 15.684 C 15.427 15.684 15.234 15.631 14.909 15.516 C 14.586 15.401 14.132 15.225 13.598 14.994 C 13.331 14.879 13.045 14.75 12.745 14.611 C 12.446 14.47 12.132 14.322 11.809 14.161 C 11.166 13.847 10.489 13.493 9.817 13.151 C 9.147 12.806 8.477 12.467 7.865 12.207 C 7.79 12.178 7.713 12.141 7.637 12.116 C 7.563 12.089 7.491 12.063 7.42 12.037 C 7.349 12.017 7.282 11.994 7.214 11.975 C 7.182 11.966 7.151 11.959 7.121 11.953 L 7.072 11.942 L 7.048 11.934 L 7.035 11.933 C 7.02 11.93 7.003 11.924 6.984 11.915 C 6.973 11.913 6.97 11.905 6.952 11.907 L 6.892 11.912 L 6.829 11.918 L 6.799 11.922 L 6.785 11.924 L 6.781 11.924 C 6.799 11.918 6.735 11.937 6.822 11.912 L 6.816 11.913 C 6.785 11.922 6.752 11.93 6.719 11.937 C 6.658 11.952 6.588 11.959 6.531 11.981 C 6.473 12 6.416 12.022 6.359 12.038 C 6.143 12.126 5.971 12.242 5.85 12.39 C 5.726 12.54 5.654 12.723 5.617 12.886 C 5.58 13.053 5.573 13.198 5.576 13.298 C 5.577 13.395 5.583 13.451 5.583 13.451 Z" style="fill: rgb(148, 126, 133);"/>
        <path d="M 14.639 17.512 C 14.639 17.512 14.512 17.509 14.292 17.521 C 14.181 17.527 14.051 17.537 13.899 17.556 C 13.749 17.573 13.58 17.599 13.4 17.64 C 13.219 17.678 13.025 17.726 12.83 17.799 C 12.632 17.872 12.431 17.961 12.236 18.074 C 12.041 18.188 11.854 18.328 11.686 18.493 C 11.517 18.657 11.368 18.849 11.242 19.059 C 11.215 19.112 11.178 19.165 11.155 19.216 C 11.128 19.275 11.093 19.341 11.068 19.395 C 11.02 19.504 10.975 19.619 10.933 19.737 C 10.852 19.971 10.793 20.211 10.754 20.449 C 10.675 20.924 10.678 21.386 10.711 21.786 C 10.725 21.985 10.755 22.168 10.78 22.335 C 10.805 22.498 10.836 22.639 10.861 22.759 C 10.913 22.992 10.952 23.128 10.952 23.128 C 10.952 23.128 10.93 23.103 10.893 23.05 C 10.856 22.997 10.802 22.918 10.745 22.812 C 10.684 22.707 10.62 22.573 10.553 22.414 C 10.485 22.255 10.425 22.069 10.366 21.861 C 10.311 21.653 10.267 21.419 10.244 21.167 C 10.219 20.917 10.219 20.646 10.25 20.367 C 10.28 20.09 10.34 19.804 10.437 19.527 C 10.485 19.39 10.541 19.255 10.607 19.116 C 10.638 19.046 10.671 18.996 10.702 18.932 C 10.74 18.86 10.78 18.804 10.818 18.739 C 10.975 18.489 11.17 18.268 11.381 18.085 C 11.595 17.904 11.827 17.758 12.058 17.654 C 12.289 17.548 12.522 17.475 12.744 17.432 C 12.966 17.387 13.177 17.364 13.37 17.355 C 13.563 17.35 13.741 17.357 13.897 17.37 C 14.052 17.386 14.186 17.408 14.297 17.428 C 14.518 17.469 14.639 17.512 14.639 17.512 Z" fill="#FFFFFF"/>
        <path d="M 47.383 26.27 C 47.383 26.27 47.45 26.151 47.548 25.932 C 47.597 25.826 47.656 25.694 47.715 25.539 C 47.777 25.386 47.839 25.209 47.897 25.016 C 47.958 24.826 48.013 24.615 48.054 24.388 C 48.094 24.166 48.124 23.927 48.131 23.685 C 48.137 23.441 48.123 23.193 48.076 22.947 C 48.032 22.702 47.955 22.465 47.851 22.241 C 47.822 22.189 47.798 22.125 47.77 22.079 C 47.737 22.021 47.703 21.956 47.673 21.907 C 47.613 21.808 47.544 21.706 47.473 21.608 C 47.327 21.414 47.169 21.237 47.002 21.083 C 46.667 20.771 46.302 20.546 45.972 20.38 C 45.807 20.295 45.649 20.233 45.507 20.175 C 45.366 20.119 45.239 20.08 45.133 20.043 C 44.924 19.979 44.797 19.949 44.797 19.949 C 44.797 19.949 44.828 19.939 44.888 19.93 C 44.948 19.922 45.036 19.911 45.15 19.907 C 45.262 19.9 45.4 19.905 45.558 19.918 C 45.715 19.93 45.891 19.965 46.085 20.012 C 46.277 20.063 46.481 20.138 46.692 20.238 C 46.899 20.341 47.114 20.474 47.317 20.641 C 47.519 20.808 47.715 21.006 47.883 21.235 C 47.969 21.351 48.045 21.47 48.121 21.603 C 48.162 21.667 48.187 21.725 48.218 21.786 C 48.256 21.859 48.282 21.923 48.313 21.993 C 48.43 22.268 48.509 22.566 48.546 22.859 C 48.584 23.154 48.584 23.446 48.551 23.722 C 48.521 23.998 48.462 24.256 48.388 24.49 C 48.313 24.727 48.227 24.941 48.136 25.131 C 48.045 25.32 47.95 25.487 47.864 25.629 C 47.776 25.771 47.691 25.889 47.622 25.984 C 47.477 26.176 47.383 26.27 47.383 26.27 Z" fill="#FFFFFF"/>
      </g>
      <g>
        <path d="M 18.406 36.214 C 18.406 36.214 18.773 36.211 19.415 36.203 C 20.055 36.214 20.971 36.177 22.067 36.16 C 23.165 36.181 24.441 36.058 25.811 36.044 C 26.494 36.03 27.2 35.962 27.916 35.925 C 28.632 35.872 29.363 35.852 30.088 35.768 C 31.536 35.609 32.999 35.548 34.348 35.322 C 35.023 35.204 35.677 35.118 36.3 35.032 C 36.919 34.93 37.519 34.903 38.047 34.753 C 40.185 34.267 41.645 34.005 41.645 34.005 C 41.645 34.005 40.261 34.532 38.137 35.224 C 37.609 35.417 37.013 35.492 36.395 35.646 C 35.775 35.784 35.119 35.931 34.438 36.056 C 33.078 36.319 31.605 36.423 30.142 36.62 C 29.407 36.684 28.671 36.684 27.948 36.72 C 27.224 36.741 26.513 36.791 25.823 36.782 C 24.443 36.767 23.156 36.729 22.058 36.64 C 19.855 36.497 18.406 36.214 18.406 36.214 Z" style="fill: rgb(148, 126, 133);"/>
      </g>
    </g>
  </g>
</svg>